<svg width="24" height="24" viewBox="0 0 24 24" fill="none" xmlns="http://www.w3.org/2000/svg">
<path d="M16.75 0C20.4779 0 23.5 3.02208 23.5 6.75V16.75C23.5 20.4779 20.4779 23.5 16.75 23.5H6.75C3.02208 23.5 0 20.4779 0 16.75V6.75C0 3.02208 3.02208 0 6.75 0H16.75ZM6.75 1.5C3.85051 1.5 1.5 3.85051 1.5 6.75V16.75C1.5 19.6495 3.85051 22 6.75 22H16.75C19.6495 22 22 19.6495 22 16.75V6.75C22 3.85051 19.6495 1.5 16.75 1.5H6.75ZM11.75 5C12.1297 5 12.4435 5.28236 12.4932 5.64844L12.5 5.75V11H17.75C18.1297 11 18.4435 11.2824 18.4932 11.6484L18.5 11.75C18.5 12.1297 18.2176 12.4435 17.8516 12.4932L17.75 12.5H12.5V17.75C12.5 18.1297 12.2176 18.4435 11.8516 18.4932L11.75 18.5C11.3703 18.5 11.0565 18.2176 11.0068 17.8516L11 17.75V12.499L5.75 12.5C5.3703 12.5 5.0565 12.2176 5.00684 11.8516L5 11.75C5 11.3703 5.28236 11.0565 5.64844 11.0068L5.75 11L11 10.999V5.75C11 5.40482 11.2333 5.11368 11.5508 5.02637L11.6484 5.00684L11.75 5Z" fill="#262626"/>
</svg>
