<svg width="21" height="24" viewBox="0 0 21 24" fill="none" xmlns="http://www.w3.org/2000/svg">
<path d="M20.002 0C20.2779 0.000255466 20.502 0.224015 20.502 0.5V22.1523C20.502 22.7045 20.054 23.1521 19.502 23.1523C19.2392 23.1523 18.9869 23.0487 18.7998 22.8643L10.251 14.4355L1.70215 22.8643C1.30891 23.252 0.675857 23.2477 0.288086 22.8545C0.103586 22.6674 0 22.4151 0 22.1523V0.5C0 0.223858 0.223858 0 0.5 0H20.002ZM1.5 20.957L9.54883 13.0215C9.93818 12.6376 10.5638 12.6376 10.9531 13.0215L19.002 20.957V1.5H1.5V20.957Z" fill="#262626"/>
</svg>
