<svg width="22" height="25" viewBox="0 0 22 25" fill="none" xmlns="http://www.w3.org/2000/svg">
<path d="M13.2695 0.219648C13.5624 -0.0732017 14.0372 -0.0732305 14.3301 0.219648C14.5963 0.485917 14.6202 0.902615 14.4023 1.19621L14.3301 1.2802L12.5381 3.07219H15.2363C14.9689 3.5342 14.7668 4.03876 14.6426 4.57316H6.5C3.73858 4.57316 1.5 6.81174 1.5 9.57316V18.0732C1.5 20.8346 3.73858 23.0732 6.5 23.0732H15.5C18.2614 23.0732 20.5 20.8346 20.5 18.0732L20.501 11.3007C21.0257 11.2533 21.5292 11.1325 22.001 10.9482L22 18.0732C22 21.663 19.0899 24.5732 15.5 24.5732H6.5C2.91015 24.5732 0 21.663 0 18.0732V9.57316C2.06162e-06 5.98331 2.91015 3.07316 6.5 3.07316H9.46191L7.66992 1.2802C7.4037 1.01393 7.37981 0.597228 7.59766 0.303633L7.66992 0.219648C7.93619 -0.0466182 8.35287 -0.0704718 8.64648 0.147383L8.73047 0.219648L11 2.48918L13.2695 0.219648ZM10.7148 11.8437C11.1589 11.726 11.5951 12.0303 11.6514 12.4716L11.6572 12.5683V14.4335L16.5889 13.1767C16.9902 13.0744 17.3986 13.3164 17.501 13.7177C17.5947 14.0855 17.399 14.4599 17.0566 14.5986L16.959 14.6298L11.0928 16.1259C10.6503 16.2387 10.2187 15.9339 10.1631 15.495L10.1572 15.3984V13.5429L5.42188 14.7978C5.02164 14.9037 4.61103 14.6657 4.50488 14.2655C4.4076 13.8985 4.60027 13.5226 4.94141 13.3808L5.03809 13.3486L10.7148 11.8437Z" fill="#262626"/>
</svg>
