<svg width="24" height="24" viewBox="0 0 24 24" fill="none" xmlns="http://www.w3.org/2000/svg">
<path d="M11.3965 0.146115C11.592 -0.0486609 11.9081 -0.0487491 12.1035 0.146115L14.4678 2.5094H20.5C22.1568 2.5094 23.4999 3.85262 23.5 5.5094V20.5094C23.5 22.1663 22.1569 23.5094 20.5 23.5094H3C1.34315 23.5094 0 22.1663 0 20.5094V5.5094C9.28011e-05 3.85262 1.3432 2.5094 3 2.5094H9.03027L11.3965 0.146115ZM9.94336 3.7174C9.75597 3.90442 9.50205 4.0093 9.2373 4.0094H3C2.17163 4.0094 1.50009 4.68105 1.5 5.5094V20.5094C1.5 21.3378 2.17157 22.0094 3 22.0094H4C4.00009 19.2481 6.23863 17.0094 9 17.0094H14.5C17.2614 17.0094 19.4999 19.2481 19.5 22.0094H20.5C21.3284 22.0094 22 21.3378 22 20.5094V5.5094C21.9999 4.68105 21.3284 4.0094 20.5 4.0094H14.2607C13.9956 4.0094 13.7412 3.90392 13.5537 3.71643L11.75 1.91369L9.94336 3.7174ZM9 18.5094C7.06706 18.5094 5.50009 20.0765 5.5 22.0094H18C17.9999 20.0765 16.4329 18.5094 14.5 18.5094H9ZM11.75 6.0094C14.3733 6.0094 16.4999 8.13612 16.5 10.7594C16.5 13.3827 14.3734 15.5094 11.75 15.5094C9.12665 15.5094 7 13.3827 7 10.7594C7.00009 8.13612 9.12671 6.0094 11.75 6.0094ZM11.75 7.5094C9.95513 7.5094 8.50009 8.96455 8.5 10.7594C8.5 12.5543 9.95507 14.0094 11.75 14.0094C13.5449 14.0094 15 12.5543 15 10.7594C14.9999 8.96455 13.5449 7.5094 11.75 7.5094Z" fill="black" fill-opacity="0.4"/>
</svg>
